<?xml version="1.0" encoding="utf-8"?>
<!-- Generator: Adobe Illustrator 26.2.1, SVG Export Plug-In . SVG Version: 6.00 Build 0)  -->
<svg version="1.1" id="Layer_1" xmlns="http://www.w3.org/2000/svg" xmlns:xlink="http://www.w3.org/1999/xlink" x="0px" y="0px"
	 viewBox="0 0 1109.08 700" style="enable-background:new 0 0 1109.08 700;" xml:space="preserve">
<style type="text/css">
	.st0{fill:url(#SVGID_1_);}
	.st1{opacity:0.74;fill:#0A142D;}
	.st2{opacity:0.44;fill:#37489E;}
	.st3{fill:#37489E;stroke:#EC008C;stroke-miterlimit:10;}
</style>
<linearGradient id="SVGID_1_" gradientUnits="userSpaceOnUse" x1="19.9593" y1="24.3806" x2="1076.489" y2="663.9744">
	<stop  offset="0" style="stop-color:#376D9E"/>
	<stop  offset="0.1181" style="stop-color:#3F6A99;stop-opacity:0.9938"/>
	<stop  offset="0.3294" style="stop-color:#506190;stop-opacity:0.9828"/>
	<stop  offset="0.6094" style="stop-color:#654F82;stop-opacity:0.9682"/>
	<stop  offset="0.9444" style="stop-color:#7B266E;stop-opacity:0.9507"/>
	<stop  offset="0.9571" style="stop-color:#7C246E;stop-opacity:0.95"/>
</linearGradient>
<rect x="0.04" y="-3.5" class="st0" width="1109" height="703"/>
<rect x="88.63" y="66.78" class="st1" width="931.83" height="562.43"/>
<path class="st2" d="M370.49,629.22c35.94-32.62,96.47-78.07,179.59-94.82c146.2-29.46,246.34,53.25,314.32-5.31
	c44.2-38.07,30.47-102.66,97.39-144c22.44-13.86,44.32-19.3,58.65-21.74c0,15.13,0,30.26,0,45.39c0,73.49,0,146.99,0,220.48
	C803.8,629.22,587.15,629.22,370.49,629.22z"/>
<path class="st3" d="M1063.36,483.87"/>
</svg>
